<svg width="64" height="64" viewBox="0 0 64 64" fill="none" xmlns="http://www.w3.org/2000/svg">
<path d="M42.08 9.96538C40.7377 9.46929 39.2623 9.46929 37.92 9.96538L26.4347 14.2134C26.3072 14.2607 26.1973 14.3458 26.1196 14.4573C26.0419 14.5689 26.0002 14.7015 26 14.8374V22.2854C24.6751 22.0735 23.3249 22.0735 22 22.2854V14.8347C22.0002 13.8813 22.2924 12.9508 22.8373 12.1684C23.3823 11.3861 24.1538 10.7894 25.048 10.4587L36.5333 6.21338C38.7705 5.38656 41.2295 5.38656 43.4667 6.21338L54.952 10.4587C55.8462 10.7894 56.6177 11.3861 57.1627 12.1684C57.7076 12.9508 57.9998 13.8813 58 14.8347V43.288C58.0004 44.2419 57.7084 45.173 57.1634 45.9559C56.6185 46.7388 55.8467 47.3359 54.952 47.6667L44.2373 51.624C44.5173 50.8454 44.6667 50.0134 44.6667 49.152V47.2027L53.5653 43.9147C53.6932 43.8673 53.8034 43.7817 53.8811 43.6697C53.9589 43.5576 54.0003 43.4244 54 43.288V14.8347C53.9998 14.6988 53.9581 14.5662 53.8804 14.4547C53.8027 14.3431 53.6928 14.258 53.5653 14.2107L42.08 9.96538ZM31.3867 20.4454C30.8852 20.2721 30.4732 19.9067 30.2411 19.4296C30.0091 18.9525 29.9761 18.4028 30.1493 17.9014C30.3226 17.3999 30.688 16.9879 31.1651 16.7558C31.6422 16.5238 32.1919 16.4908 32.6933 16.664L39.7813 19.1174C39.9222 19.1659 40.0752 19.1659 40.216 19.1174L47.2827 16.664C47.7841 16.4901 48.3341 16.5224 48.8117 16.7539C49.2893 16.9855 49.6554 17.3973 49.8293 17.8987C50.0033 18.4001 49.971 18.9502 49.7394 19.4278C49.5079 19.9053 49.0961 20.2714 48.5947 20.4454L41.528 22.896C40.539 23.2384 39.4637 23.2384 38.4747 22.896L31.384 20.4454H31.3867ZM15.3867 39.112C14.8852 38.9388 14.4732 38.5734 14.2411 38.0963C14.0091 37.6192 13.9761 37.0695 14.1493 36.568C14.3226 36.0666 14.688 35.6545 15.1651 35.4225C15.6422 35.1905 16.1919 35.1574 16.6933 35.3307L24 37.8587L31.2853 35.3334C31.5356 35.2384 31.8024 35.1946 32.0698 35.2046C32.3373 35.2146 32.6001 35.2781 32.8426 35.3916C33.085 35.505 33.3023 35.6659 33.4814 35.8648C33.6605 36.0637 33.7979 36.2966 33.8854 36.5495C33.9728 36.8025 34.0086 37.0705 33.9907 37.3376C33.9727 37.6046 33.9013 37.8654 33.7806 38.1043C33.66 38.3433 33.4927 38.5556 33.2885 38.7287C33.0843 38.9018 32.8475 39.0322 32.592 39.112L26 41.3974V48.5974C26 49.1278 25.7893 49.6365 25.4142 50.0116C25.0391 50.3867 24.5304 50.5974 24 50.5974C23.4696 50.5974 22.9609 50.3867 22.5858 50.0116C22.2107 49.6365 22 49.1278 22 48.5974V41.3974L15.3867 39.112ZM27.4667 25.4134C25.2295 24.5866 22.7705 24.5866 20.5333 25.4134L9.048 29.6587C8.15376 29.9894 7.38228 30.5861 6.83735 31.3684C6.29242 32.1508 6.00019 33.0813 6 34.0347V49.1547C5.99965 50.1086 6.29162 51.0397 6.83658 51.8226C7.38155 52.6054 8.15334 53.2025 9.048 53.5334L20.5333 57.776C22.7705 58.6029 25.2295 58.6029 27.4667 57.776L38.952 53.5307C39.8467 53.1999 40.6185 52.6028 41.1634 51.8199C41.7084 51.037 42.0004 50.1059 42 49.152V34.032C41.9998 33.0786 41.7076 32.1481 41.1627 31.3658C40.6177 30.5834 39.8462 29.9867 38.952 29.656L27.4667 25.4134ZM21.92 29.1654C23.2623 28.6693 24.7377 28.6693 26.08 29.1654L37.5653 33.4107C37.6928 33.458 37.8027 33.5431 37.8804 33.6547C37.9581 33.7662 37.9998 33.8988 38 34.0347V49.1547C38.0003 49.2911 37.9589 49.4243 37.8811 49.5363C37.8034 49.6484 37.6932 49.7339 37.5653 49.7814L26.08 54.024C24.7377 54.5201 23.2623 54.5201 21.92 54.024L10.4347 49.7787C10.3068 49.7313 10.1966 49.6457 10.1189 49.5337C10.0411 49.4216 9.99966 49.2884 10 49.152V34.032C10.0002 33.8961 10.0419 33.7635 10.1196 33.652C10.1973 33.5405 10.3072 33.4553 10.4347 33.408L21.92 29.1627V29.1654Z" fill="url(#paint0_linear_167_476)"/>
<defs>
<linearGradient id="paint0_linear_167_476" x1="14.069" y1="31.9947" x2="120.759" y2="31.9947" gradientUnits="userSpaceOnUse">
<stop offset="0.114583" stop-color="#BA2B60"/>
<stop offset="0.65625" stop-color="#E9C6CC"/>
<stop offset="0.65635" stop-color="#FFB9C5"/>
<stop offset="0.90625" stop-color="#C7ECE2"/>
</linearGradient>
</defs>
</svg>
