<svg width="64" height="64" viewBox="0 0 64 64" fill="none" xmlns="http://www.w3.org/2000/svg">
<path d="M13.3573 13.3575C13.5194 11.1762 14.5004 9.13699 16.1033 7.6488C17.7063 6.1606 19.8126 5.33353 21.9999 5.3335H45.9999C47.6633 5.3335 49.3105 5.66113 50.8472 6.29769C52.384 6.93425 53.7804 7.86727 54.9566 9.04348C56.1328 10.2197 57.0658 11.616 57.7024 13.1528C58.339 14.6896 58.6666 16.3368 58.6666 18.0002V34.1602C57.4765 33.0169 56.1296 32.049 54.6666 31.2855V18.0002C54.6666 15.7016 53.7535 13.4972 52.1282 11.8719C50.5029 10.2466 48.2985 9.3335 45.9999 9.3335H21.9999C20.8778 9.33353 19.7932 9.73791 18.945 10.4725C18.0967 11.2072 17.5416 12.2229 17.3813 13.3335H41.9999C44.2985 13.3335 46.5029 14.2466 48.1282 15.8719C49.7535 17.4972 50.6666 19.7016 50.6666 22.0002V29.7975C49.3557 29.4884 48.0134 29.3327 46.6666 29.3335V22.0002C46.6666 20.7625 46.1749 19.5755 45.2998 18.7003C44.4246 17.8252 43.2376 17.3335 41.9999 17.3335H13.9999C12.7622 17.3335 11.5753 17.8252 10.7001 18.7003C9.82492 19.5755 9.33325 20.7625 9.33325 22.0002V42.0002C9.33325 44.5762 11.4239 46.6668 13.9999 46.6668H17.3333V54.0002L27.1119 46.6668H29.3333C29.3333 48.0428 29.4933 49.3815 29.7973 50.6668H28.4453L18.6666 58.0002C16.4693 59.6482 13.3333 58.0802 13.3333 55.3335V50.6402C11.1568 50.4722 9.12379 49.4892 7.64066 47.8874C6.15753 46.2856 5.3335 44.1831 5.33325 42.0002V22.0002C5.33329 19.8129 6.16036 17.7065 7.64855 16.1036C9.13675 14.5006 11.176 13.5197 13.3573 13.3575ZM61.3333 46.6668C61.3333 42.777 59.788 39.0465 57.0375 36.2959C54.287 33.5454 50.5564 32.0002 46.6666 32.0002C42.7767 32.0002 39.0462 33.5454 36.2957 36.2959C33.5452 39.0465 31.9999 42.777 31.9999 46.6668C31.9999 50.5567 33.5452 54.2872 36.2957 57.0377C39.0462 59.7883 42.7767 61.3335 46.6666 61.3335C50.5564 61.3335 54.287 59.7883 57.0375 57.0377C59.788 54.2872 61.3333 50.5567 61.3333 46.6668ZM55.6106 40.3895C55.7348 40.5134 55.8333 40.6605 55.9005 40.8225C55.9677 40.9845 56.0023 41.1581 56.0023 41.3335C56.0023 41.5089 55.9677 41.6825 55.9005 41.8445C55.8333 42.0065 55.7348 42.1536 55.6106 42.2775L44.9439 52.9442C44.8201 53.0683 44.6729 53.1668 44.5109 53.2341C44.349 53.3013 44.1753 53.3359 43.9999 53.3359C43.8245 53.3359 43.6509 53.3013 43.4889 53.2341C43.3269 53.1668 43.1798 53.0683 43.0559 52.9442L37.7226 47.6108C37.4722 47.3605 37.3316 47.0209 37.3316 46.6668C37.3316 46.3128 37.4722 45.9732 37.7226 45.7228C37.9729 45.4725 38.3125 45.3318 38.6666 45.3318C39.0207 45.3318 39.3602 45.4725 39.6106 45.7228L43.9999 50.1148L53.7226 40.3895C53.8464 40.2653 53.9936 40.1668 54.1556 40.0996C54.3176 40.0324 54.4912 39.9978 54.6666 39.9978C54.842 39.9978 55.0156 40.0324 55.1776 40.0996C55.3396 40.1668 55.4867 40.2653 55.6106 40.3895Z" fill="#861B43"/>
</svg>
