<svg width="64" height="64" viewBox="0 0 64 64" fill="none" xmlns="http://www.w3.org/2000/svg">
<path d="M13.3334 53.3333C14.8062 53.3333 16.0001 52.1394 16.0001 50.6667C16.0001 49.1939 14.8062 48 13.3334 48C11.8607 48 10.6667 49.1939 10.6667 50.6667C10.6667 52.1394 11.8607 53.3333 13.3334 53.3333Z" fill="url(#paint0_linear_167_442)"/>
<path d="M10.6667 10.6665H16.0001V34.6665H10.6667V10.6665Z" fill="url(#paint1_linear_167_442)"/>
<path d="M18.6666 5.3335H7.99992C7.29267 5.3335 6.6144 5.61445 6.1143 6.11454C5.6142 6.61464 5.33325 7.29292 5.33325 8.00016V56.0002C5.33325 56.7074 5.6142 57.3857 6.1143 57.8858C6.6144 58.3859 7.29267 58.6668 7.99992 58.6668H18.6666C19.3738 58.6668 20.0521 58.3859 20.5522 57.8858C21.0523 57.3857 21.3333 56.7074 21.3333 56.0002V8.00016C21.3333 7.29292 21.0523 6.61464 20.5522 6.11454C20.0521 5.61445 19.3738 5.3335 18.6666 5.3335ZM18.6666 56.0002H7.99992V8.00016H18.6666V56.0002Z" fill="url(#paint2_linear_167_442)"/>
<path d="M31.9999 53.3333C33.4727 53.3333 34.6666 52.1394 34.6666 50.6667C34.6666 49.1939 33.4727 48 31.9999 48C30.5272 48 29.3333 49.1939 29.3333 50.6667C29.3333 52.1394 30.5272 53.3333 31.9999 53.3333Z" fill="url(#paint3_linear_167_442)"/>
<path d="M29.3333 10.6665H34.6666V34.6665H29.3333V10.6665Z" fill="url(#paint4_linear_167_442)"/>
<path d="M37.3333 5.3335H26.6667C25.9594 5.3335 25.2811 5.61445 24.781 6.11454C24.281 6.61464 24 7.29292 24 8.00016V56.0002C24 56.7074 24.281 57.3857 24.781 57.8858C25.2811 58.3859 25.9594 58.6668 26.6667 58.6668H37.3333C38.0406 58.6668 38.7189 58.3859 39.219 57.8858C39.719 57.3857 40 56.7074 40 56.0002V8.00016C40 7.29292 39.719 6.61464 39.219 6.11454C38.7189 5.61445 38.0406 5.3335 37.3333 5.3335ZM37.3333 56.0002H26.6667V8.00016H37.3333V56.0002Z" fill="url(#paint5_linear_167_442)"/>
<path d="M50.6667 53.3333C52.1394 53.3333 53.3333 52.1394 53.3333 50.6667C53.3333 49.1939 52.1394 48 50.6667 48C49.1939 48 48 49.1939 48 50.6667C48 52.1394 49.1939 53.3333 50.6667 53.3333Z" fill="url(#paint6_linear_167_442)"/>
<path d="M48 10.6665H53.3333V34.6665H48V10.6665Z" fill="url(#paint7_linear_167_442)"/>
<path d="M56.0001 5.3335H45.3334C44.6262 5.3335 43.9479 5.61445 43.4478 6.11454C42.9477 6.61464 42.6667 7.29292 42.6667 8.00016V56.0002C42.6667 56.7074 42.9477 57.3857 43.4478 57.8858C43.9479 58.3859 44.6262 58.6668 45.3334 58.6668H56.0001C56.7073 58.6668 57.3856 58.3859 57.8857 57.8858C58.3858 57.3857 58.6667 56.7074 58.6667 56.0002V8.00016C58.6667 7.29292 58.3858 6.61464 57.8857 6.11454C57.3856 5.61445 56.7073 5.3335 56.0001 5.3335ZM56.0001 56.0002H45.3334V8.00016H56.0001V56.0002Z" fill="url(#paint8_linear_167_442)"/>
<defs>
<linearGradient id="paint0_linear_167_442" x1="11.4943" y1="50.6667" x2="22.4369" y2="50.6667" gradientUnits="userSpaceOnUse">
<stop offset="0.114583" stop-color="#BA2B60"/>
<stop offset="0.65625" stop-color="#E9C6CC"/>
<stop offset="0.65635" stop-color="#FFB9C5"/>
<stop offset="0.90625" stop-color="#C7ECE2"/>
</linearGradient>
<linearGradient id="paint1_linear_167_442" x1="11.4943" y1="22.6665" x2="22.4369" y2="22.6665" gradientUnits="userSpaceOnUse">
<stop offset="0.114583" stop-color="#BA2B60"/>
<stop offset="0.65625" stop-color="#E9C6CC"/>
<stop offset="0.65635" stop-color="#FFB9C5"/>
<stop offset="0.90625" stop-color="#C7ECE2"/>
</linearGradient>
<linearGradient id="paint2_linear_167_442" x1="7.81601" y1="32.0002" x2="40.6436" y2="32.0002" gradientUnits="userSpaceOnUse">
<stop offset="0.114583" stop-color="#BA2B60"/>
<stop offset="0.65625" stop-color="#E9C6CC"/>
<stop offset="0.65635" stop-color="#FFB9C5"/>
<stop offset="0.90625" stop-color="#C7ECE2"/>
</linearGradient>
<linearGradient id="paint3_linear_167_442" x1="30.1608" y1="50.6667" x2="41.1034" y2="50.6667" gradientUnits="userSpaceOnUse">
<stop offset="0.114583" stop-color="#BA2B60"/>
<stop offset="0.65625" stop-color="#E9C6CC"/>
<stop offset="0.65635" stop-color="#FFB9C5"/>
<stop offset="0.90625" stop-color="#C7ECE2"/>
</linearGradient>
<linearGradient id="paint4_linear_167_442" x1="30.1608" y1="22.6665" x2="41.1034" y2="22.6665" gradientUnits="userSpaceOnUse">
<stop offset="0.114583" stop-color="#BA2B60"/>
<stop offset="0.65625" stop-color="#E9C6CC"/>
<stop offset="0.65635" stop-color="#FFB9C5"/>
<stop offset="0.90625" stop-color="#C7ECE2"/>
</linearGradient>
<linearGradient id="paint5_linear_167_442" x1="26.4828" y1="32.0002" x2="59.3103" y2="32.0002" gradientUnits="userSpaceOnUse">
<stop offset="0.114583" stop-color="#BA2B60"/>
<stop offset="0.65625" stop-color="#E9C6CC"/>
<stop offset="0.65635" stop-color="#FFB9C5"/>
<stop offset="0.90625" stop-color="#C7ECE2"/>
</linearGradient>
<linearGradient id="paint6_linear_167_442" x1="48.8276" y1="50.6667" x2="59.7701" y2="50.6667" gradientUnits="userSpaceOnUse">
<stop offset="0.114583" stop-color="#BA2B60"/>
<stop offset="0.65625" stop-color="#E9C6CC"/>
<stop offset="0.65635" stop-color="#FFB9C5"/>
<stop offset="0.90625" stop-color="#C7ECE2"/>
</linearGradient>
<linearGradient id="paint7_linear_167_442" x1="48.8276" y1="22.6665" x2="59.7701" y2="22.6665" gradientUnits="userSpaceOnUse">
<stop offset="0.114583" stop-color="#BA2B60"/>
<stop offset="0.65625" stop-color="#E9C6CC"/>
<stop offset="0.65635" stop-color="#FFB9C5"/>
<stop offset="0.90625" stop-color="#C7ECE2"/>
</linearGradient>
<linearGradient id="paint8_linear_167_442" x1="45.1495" y1="32.0002" x2="77.9771" y2="32.0002" gradientUnits="userSpaceOnUse">
<stop offset="0.114583" stop-color="#BA2B60"/>
<stop offset="0.65625" stop-color="#E9C6CC"/>
<stop offset="0.65635" stop-color="#FFB9C5"/>
<stop offset="0.90625" stop-color="#C7ECE2"/>
</linearGradient>
</defs>
</svg>
